HIERARCHY
ROOT Hips
{
	OFFSET 0.053599 88.859886 3.107447
	CHANNELS 6 Xposition Yposition Zposition Zrotation Yrotation Xrotation 
	JOINT Spine
	{
		OFFSET -0.000000 8.814246 -2.080107
		CHANNELS 3 Zrotation Yrotation Xrotation
		JOINT Spine1
		{
			OFFSET 0.000000 8.844141 0.000000
			CHANNELS 3 Zrotation Yrotation Xrotation
			JOINT Spine2
			{
				OFFSET -0.000000 11.682268 0.000000
				CHANNELS 3 Zrotation Yrotation Xrotation
				JOINT Spine3
				{
					OFFSET 0.000000 11.746700 0.000000
					CHANNELS 3 Zrotation Yrotation Xrotation
					JOINT Neck
					{
						OFFSET -0.000000 17.658264 -0.000000
						CHANNELS 3 Zrotation Yrotation Xrotation
						JOINT Neck1
						{
							OFFSET -0.000000 5.101515 -0.000000
							CHANNELS 3 Zrotation Yrotation Xrotation
							JOINT Head
							{
								OFFSET 0.000000 5.101515 0.000000
								CHANNELS 3 Zrotation Yrotation Xrotation
								JOINT HeadEnd
								{
									OFFSET 0.000000 11.655085 0.000000
									CHANNELS 3 Zrotation Yrotation Xrotation
									End Site
									{
										OFFSET 0.000000 0.000000 0.000000
									}
								}
							}
						}
					}
					JOINT RightShoulder
					{
						OFFSET -2.625389 11.175210 0.000000
						CHANNELS 3 Zrotation Yrotation Xrotation
						JOINT RightArm
						{
							OFFSET -0.000000 10.434715 -0.000000
							CHANNELS 3 Zrotation Yrotation Xrotation
							JOINT RightForeArm
							{
								OFFSET -0.000000 29.628420 0.000000
								CHANNELS 3 Zrotation Yrotation Xrotation
								JOINT RightHand
								{
									OFFSET -0.000000 22.857611 0.000000
									CHANNELS 3 Zrotation Yrotation Xrotation
									JOINT RightHandThumb1
									{
										OFFSET -2.867323 3.959563 2.944291
										CHANNELS 3 Zrotation Yrotation Xrotation
										JOINT RightHandThumb2
										{
											OFFSET 0.000000 3.350399 0.000000
											CHANNELS 3 Zrotation Yrotation Xrotation
											JOINT RightHandThumb3
											{
												OFFSET 0.000000 3.756509 -0.000000
												CHANNELS 3 Zrotation Yrotation Xrotation
												JOINT RightHandThumb4
												{
													OFFSET 0.000000 3.147345 0.000000
													CHANNELS 3 Zrotation Yrotation Xrotation
													End Site
													{
														OFFSET 0.000000 0.000000 0.000000
													}
												}
											}
										}
									}
									JOINT RightHandIndex1
									{
										OFFSET -0.086752 10.030893 2.345280
										CHANNELS 3 Zrotation Yrotation Xrotation
										JOINT RightHandIndex2
										{
											OFFSET -0.000000 4.061090 0.000000
											CHANNELS 3 Zrotation Yrotation Xrotation
											JOINT RightHandIndex3
											{
												OFFSET -0.000000 3.248873 0.000000
												CHANNELS 3 Zrotation Yrotation Xrotation
												JOINT RightHandIndex4
												{
													OFFSET 0.000000 2.639709 -0.000000
													CHANNELS 3 Zrotation Yrotation Xrotation
													End Site
													{
														OFFSET 0.000000 0.000000 0.000000
													}
												}
											}
										}
									}
									JOINT RightHandMiddle1
									{
										OFFSET 0.104102 9.502952 0.006768
										CHANNELS 3 Zrotation Yrotation Xrotation
										JOINT RightHandMiddle2
										{
											OFFSET 0.000000 4.568727 0.000000
											CHANNELS 3 Zrotation Yrotation Xrotation
											JOINT RightHandMiddle3
											{
												OFFSET 0.000000 3.654981 -0.000000
												CHANNELS 3 Zrotation Yrotation Xrotation
												JOINT RightHandMiddle4
												{
													OFFSET -0.000000 2.741236 -0.000000
													CHANNELS 3 Zrotation Yrotation Xrotation
													End Site
													{
														OFFSET 0.000000 0.000000 0.000000
													}
												}
											}
										}
									}
									JOINT RightHandRing1
									{
										OFFSET 0.086752 8.921708 -2.267442
										CHANNELS 3 Zrotation Yrotation Xrotation
										JOINT RightHandRing2
										{
											OFFSET -0.000000 4.061090 0.000000
											CHANNELS 3 Zrotation Yrotation Xrotation
											JOINT RightHandRing3
											{
												OFFSET 0.000000 3.654981 -0.000000
												CHANNELS 3 Zrotation Yrotation Xrotation
												JOINT RightHandRing4
												{
													OFFSET 0.000000 2.741236 -0.000000
													CHANNELS 3 Zrotation Yrotation Xrotation
													End Site
													{
														OFFSET 0.000000 0.000000 0.000000
													}
												}
											}
										}
									}
									JOINT RightHandPinky1
									{
										OFFSET -0.173504 7.976997 -4.467199
										CHANNELS 3 Zrotation Yrotation Xrotation
										JOINT RightHandPinky2
										{
											OFFSET 0.000000 3.350399 -0.000000
											CHANNELS 3 Zrotation Yrotation Xrotation
											JOINT RightHandPinky3
											{
												OFFSET -0.000000 2.842763 0.000000
												CHANNELS 3 Zrotation Yrotation Xrotation
												JOINT RightHandPinky4
												{
													OFFSET -0.000000 2.639709 0.000000
													CHANNELS 3 Zrotation Yrotation Xrotation
													End Site
													{
														OFFSET 0.000000 0.000000 0.000000
													}
												}
											}
										}
									}
									JOINT RightForeArmEnd
									{
										OFFSET 0.000000 0.000000 0.000000
										CHANNELS 3 Zrotation Yrotation Xrotation
										End Site
										{
											OFFSET 0.000000 0.000000 0.000000
										}
									}
								}
								JOINT RightArmEnd
								{
									OFFSET 0.000000 0.000000 0.000000
									CHANNELS 3 Zrotation Yrotation Xrotation
									End Site
									{
										OFFSET 0.000000 0.000000 0.000000
									}
								}
							}
						}
					}
					JOINT LeftShoulder
					{
						OFFSET 2.625389 11.175210 0.000000
						CHANNELS 3 Zrotation Yrotation Xrotation
						JOINT LeftArm
						{
							OFFSET 0.000000 10.813635 -0.000000
							CHANNELS 3 Zrotation Yrotation Xrotation
							JOINT LeftForeArm
							{
								OFFSET 0.000000 28.724781 0.000000
								CHANNELS 3 Zrotation Yrotation Xrotation
								JOINT LeftHand
								{
									OFFSET 0.644384 25.716167 -0.328871
									CHANNELS 3 Zrotation Yrotation Xrotation
									JOINT LeftHandThumb1
									{
										OFFSET 2.867323 3.959563 2.944291
										CHANNELS 3 Zrotation Yrotation Xrotation
										JOINT LeftHandThumb2
										{
											OFFSET 0.000000 3.350399 0.000000
											CHANNELS 3 Zrotation Yrotation Xrotation
											JOINT LeftHandThumb3
											{
												OFFSET -0.000000 3.756509 0.000000
												CHANNELS 3 Zrotation Yrotation Xrotation
												JOINT LeftHandThumb4
												{
													OFFSET -0.000000 3.100000 0.000000
													CHANNELS 3 Zrotation Yrotation Xrotation
													End Site
													{
														OFFSET 0.000000 0.000000 0.000000
													}
												}
											}
										}
									}
									JOINT LeftHandIndex1
									{
										OFFSET 0.086752 10.030893 2.345280
										CHANNELS 3 Zrotation Yrotation Xrotation
										JOINT LeftHandIndex2
										{
											OFFSET -0.000000 4.061090 -0.000000
											CHANNELS 3 Zrotation Yrotation Xrotation
											JOINT LeftHandIndex3
											{
												OFFSET 0.000000 3.248873 -0.000000
												CHANNELS 3 Zrotation Yrotation Xrotation
												JOINT LeftHandIndex4
												{
													OFFSET 0.000000 2.639709 -0.000000
													CHANNELS 3 Zrotation Yrotation Xrotation
													End Site
													{
														OFFSET 0.000000 0.000000 0.000000
													}
												}
											}
										}
									}
									JOINT LeftHandMiddle1
									{
										OFFSET -0.104102 9.502952 0.006768
										CHANNELS 3 Zrotation Yrotation Xrotation
										JOINT LeftHandMiddle2
										{
											OFFSET -0.000000 4.568727 -0.000000
											CHANNELS 3 Zrotation Yrotation Xrotation
											JOINT LeftHandMiddle3
											{
												OFFSET 0.000000 3.654981 0.000000
												CHANNELS 3 Zrotation Yrotation Xrotation
												JOINT LeftHandMiddle4
												{
													OFFSET 0.000000 2.741236 -0.000000
													CHANNELS 3 Zrotation Yrotation Xrotation
													End Site
													{
														OFFSET 0.000000 0.000000 0.000000
													}
												}
											}
										}
									}
									JOINT LeftHandRing1
									{
										OFFSET -0.086752 8.921708 -2.267442
										CHANNELS 3 Zrotation Yrotation Xrotation
										JOINT LeftHandRing2
										{
											OFFSET 0.000000 4.061090 0.000000
											CHANNELS 3 Zrotation Yrotation Xrotation
											JOINT LeftHandRing3
											{
												OFFSET 0.000000 3.654981 0.000000
												CHANNELS 3 Zrotation Yrotation Xrotation
												JOINT LeftHandRing4
												{
													OFFSET 0.000000 2.741236 0.000000
													CHANNELS 3 Zrotation Yrotation Xrotation
													End Site
													{
														OFFSET 0.000000 0.000000 0.000000
													}
												}
											}
										}
									}
									JOINT LeftHandPinky1
									{
										OFFSET 0.173504 7.976997 -4.467199
										CHANNELS 3 Zrotation Yrotation Xrotation
										JOINT LeftHandPinky2
										{
											OFFSET -0.000000 3.350399 -0.000000
											CHANNELS 3 Zrotation Yrotation Xrotation
											JOINT LeftHandPinky3
											{
												OFFSET 0.000000 2.842763 0.000000
												CHANNELS 3 Zrotation Yrotation Xrotation
												JOINT LeftHandPinky4
												{
													OFFSET -0.000000 2.639709 -0.000000
													CHANNELS 3 Zrotation Yrotation Xrotation
													End Site
													{
														OFFSET 0.000000 0.000000 0.000000
													}
												}
											}
										}
									}
									JOINT LeftForeArmEnd
									{
										OFFSET 0.000000 0.000000 0.000000
										CHANNELS 3 Zrotation Yrotation Xrotation
										End Site
										{
											OFFSET 0.000000 0.000000 0.000000
										}
									}
								}
								JOINT LeftArmEnd
								{
									OFFSET 0.000000 0.000000 0.000000
									CHANNELS 3 Zrotation Yrotation Xrotation
									End Site
									{
										OFFSET 0.000000 0.000000 0.000000
									}
								}
							}
						}
					}
				}
			}
		}
	}
	JOINT RightUpLeg
	{
		OFFSET -11.289943 0.000000 0.000000
		CHANNELS 3 Zrotation Yrotation Xrotation
		JOINT RightLeg
		{
			OFFSET 0.000000 -38.200325 0.000000
			CHANNELS 3 Zrotation Yrotation Xrotation
			JOINT RightFoot
			{
				OFFSET -0.000000 -39.900856 -0.000000
				CHANNELS 3 Zrotation Yrotation Xrotation
				JOINT RightToeBase
				{
					OFFSET 0.000000 0.000000 15.261641
					CHANNELS 3 Zrotation Yrotation Xrotation
					JOINT RightToeBaseEnd
					{
						OFFSET 0.000000 0.000000 7.370709
						CHANNELS 3 Zrotation Yrotation Xrotation
						End Site
						{
							OFFSET 0.000000 0.000000 0.000000
						}
					}
				}
				JOINT RightLegEnd
				{
					OFFSET 0.000000 0.000000 0.000000
					CHANNELS 3 Zrotation Yrotation Xrotation
					End Site
					{
						OFFSET 0.000000 0.000000 0.000000
					}
				}
			}
			JOINT RightUpLegEnd
			{
				OFFSET 0.000000 0.000000 0.000000
				CHANNELS 3 Zrotation Yrotation Xrotation
				End Site
				{
					OFFSET 0.000000 0.000000 0.000000
				}
			}
		}
	}
	JOINT LeftUpLeg
	{
		OFFSET 11.315661 -0.000000 0.000000
		CHANNELS 3 Zrotation Yrotation Xrotation
		JOINT LeftLeg
		{
			OFFSET -0.000000 -38.200325 -0.000000
			CHANNELS 3 Zrotation Yrotation Xrotation
			JOINT LeftFoot
			{
				OFFSET 0.000000 -39.900856 -0.000000
				CHANNELS 3 Zrotation Yrotation Xrotation
				JOINT LeftToeBase
				{
					OFFSET -0.000000 -0.000000 15.261641
					CHANNELS 3 Zrotation Yrotation Xrotation
					JOINT LeftToeBaseEnd
					{
						OFFSET 0.000000 -0.000000 7.539996
						CHANNELS 3 Zrotation Yrotation Xrotation
						End Site
						{
							OFFSET 0.000000 0.000000 0.000000
						}
					}
				}
				JOINT LeftLegEnd
				{
					OFFSET 0.000000 0.000000 0.000000
					CHANNELS 3 Zrotation Yrotation Xrotation
					End Site
					{
						OFFSET 0.000000 0.000000 0.000000
					}
				}
			}
			JOINT LeftUpLegEnd
			{
				OFFSET 0.000000 0.000000 0.000000
				CHANNELS 3 Zrotation Yrotation Xrotation
				End Site
				{
					OFFSET 0.000000 0.000000 0.000000
				}
			}
		}
	}
}
MOTION
Frames: 4
Frame Time: 0.016667
0.577482 88.842583 2.857063 -0.082041 -1.309713 -10.443297 0.880921 0.168032 6.638796 -1.174019 0.352335 2.602108 0.458019 -0.566092 4.501023 -1.411965 0.311890 4.890068 1.814125 -0.247123 5.579295 0.117973 -0.026293 -3.160626 -0.057568 -0.777991 -20.885427 0.000000 0.000000 0.000000 91.583725 -0.181878 8.403994 69.788841 -14.298152 -2.448680 -0.545110 20.925491 65.191704 -10.090206 7.928130 -2.772202 17.099770 31.030573 64.707191 -5.419882 -7.045174 -12.437712 -3.961316 -4.564014 -8.475845 0.000000 0.000000 0.000000 -9.509550 -7.308146 12.250861 1.374187 0.513974 0.618953 0.994016 0.075601 0.670019 0.000000 0.000000 0.000000 -8.781342 -1.943151 7.227978 0.425663 0.510323 0.216888 1.046655 0.005337 0.201571 0.000000 0.000000 0.000000 -7.041359 5.811685 1.034936 0.900481 -1.008311 -0.407164 1.022298 -0.026077 -0.285626 0.000000 0.000000 0.000000 -6.815064 14.096237 -5.681539 1.314444 -1.957634 -1.167965 1.265188 0.009057 -0.928686 0.000000 0.000000 0.000000 0.000000 0.000000 0.000000 0.000000 0.000000 0.000000 -88.470444 0.161481 3.460877 -72.738129 9.040491 -9.481040 -0.107934 -14.419872 80.314705 -0.877672 -10.501014 -3.122126 -17.151920 -30.995752 64.655235 5.571728 6.959798 -12.391652 4.014470 4.727993 -8.746900 0.000000 0.000000 0.000000 1.797310 -9.357940 14.519475 -2.032213 0.585152 -0.222861 -1.999979 0.108764 -0.313778 0.000000 0.000000 0.000000 1.240982 -3.854305 8.702708 -2.325677 0.532725 -0.164893 -2.609818 0.031106 -0.133906 0.000000 0.000000 0.000000 -3.019059 4.871467 1.343299 -4.789890 -1.042010 0.406044 -4.958338 -0.038463 0.319312 0.000000 0.000000 0.000000 -8.009755 14.369399 -6.466744 -7.286432 -2.014214 1.627714 -6.956888 0.046150 1.440655 0.000000 0.000000 0.000000 0.000000 0.000000 0.000000 0.000000 0.000000 0.000000 -1.010006 -9.022990 14.418973 -0.064504 -0.651033 4.942292 -2.553972 -7.382473 18.094896 -0.824843 0.791125 -18.790092 0.000000 0.000000 0.000000 0.000000 0.000000 0.000000 0.000000 0.000000 0.000000 -1.622999 -6.204175 9.244215 0.077342 0.342492 10.353364 4.008561 -1.369886 16.737135 0.246590 -0.414580 -21.058874 0.000000 0.000000 0.000000 0.000000 0.000000 0.000000 0.000000 0.000000 0.000000 
0.579679 88.829048 2.839758 -0.072155 -1.329764 -10.476969 0.863744 0.179161 6.656648 -1.172487 0.364410 2.612404 0.453326 -0.554261 4.513446 -1.422446 0.314699 4.956827 1.889783 -0.320627 5.776224 0.133782 -0.074938 -3.053038 -0.032936 -0.781765 -20.946426 0.000000 0.000000 0.000000 91.544922 -0.165650 8.336204 69.900002 -13.722181 -2.629100 -0.556682 21.019363 66.180344 -10.380404 8.048461 -2.595519 17.091946 31.030851 64.717430 -5.415875 -7.028190 -12.414443 -3.957918 -4.550310 -8.453246 0.000000 0.000000 0.000000 -9.576474 -7.288064 12.363412 1.331052 0.522097 0.584260 0.950586 0.083554 0.642280 0.000000 0.000000 0.000000 -8.832284 -1.931711 7.267162 0.389596 0.513768 0.202954 1.016359 0.008550 0.190707 0.000000 0.000000 0.000000 -7.044262 5.811124 0.992640 0.878120 -1.012626 -0.389068 0.998281 -0.030002 -0.270701 0.000000 0.000000 0.000000 -6.807796 14.094493 -5.820159 1.317261 -1.971450 -1.113155 1.265145 -0.003367 -0.881226 0.000000 0.000000 0.000000 0.000000 0.000000 0.000000 0.000000 0.000000 0.000000 -88.513771 0.174635 3.377586 -72.620880 8.696354 -9.480289 -0.048189 -14.406195 81.558372 -0.660407 -10.292147 -2.517125 -17.054127 -31.029043 64.760384 5.454571 6.763944 -12.083228 3.924755 4.600616 -8.528753 0.000000 0.000000 0.000000 2.526783 -9.491632 14.985887 -1.899225 0.591472 -0.193550 -1.865870 0.115278 -0.287804 0.000000 0.000000 0.000000 1.901927 -3.970643 9.019175 -2.193588 0.535370 -0.154335 -2.487105 0.034066 -0.125419 0.000000 0.000000 0.000000 -2.455645 4.777401 1.431523 -4.666696 -1.045596 0.391069 -4.833567 -0.041877 0.308865 0.000000 0.000000 0.000000 -7.596228 14.319970 -6.610259 -7.199302 -2.023175 1.588693 -6.864202 0.037283 1.406440 0.000000 0.000000 0.000000 0.000000 0.000000 0.000000 0.000000 0.000000 0.000000 -0.993517 -9.004884 14.421701 -0.065705 -0.652730 4.966284 -2.587758 -7.388565 18.066132 -0.824359 0.793832 -18.781736 0.000000 0.000000 0.000000 0.000000 0.000000 0.000000 0.000000 0.000000 0.000000 -1.595310 -6.198133 9.278639 0.077337 0.342379 10.391993 3.985183 -1.386724 16.677702 0.244715 -0.413519 -21.020695 0.000000 0.000000 0.000000 0.000000 0.000000 0.000000 0.000000 0.000000 0.000000 
0.581467 88.817093 2.820365 -0.062235 -1.354491 -10.502637 0.847421 0.189198 6.672177 -1.172688 0.375635 2.625569 0.448571 -0.544902 4.522777 -1.433961 0.317122 5.021949 1.963493 -0.390771 5.973198 0.149763 -0.119614 -2.945485 -0.009751 -0.785797 -21.002823 0.000000 0.000000 0.000000 91.506378 -0.152291 8.271873 69.989182 -13.205984 -2.796870 -0.568822 21.098764 67.165321 -10.581203 8.224561 -2.404238 17.094976 31.026972 64.715668 -5.426483 -7.031237 -12.425682 -3.965261 -4.550907 -8.455569 0.000000 0.000000 0.000000 -9.549035 -7.283206 12.435495 1.286347 0.529557 0.554073 0.904551 0.091003 0.618790 0.000000 0.000000 0.000000 -8.787517 -1.936080 7.282187 0.352269 0.516968 0.190971 0.983972 0.011589 0.181380 0.000000 0.000000 0.000000 -6.939898 5.792062 0.947205 0.861512 -1.016602 -0.373504 0.978824 -0.033609 -0.257562 0.000000 0.000000 0.000000 -6.688035 14.074968 -5.943812 1.336315 -1.984762 -1.063154 1.278109 -0.015304 -0.837912 0.000000 0.000000 0.000000 0.000000 0.000000 0.000000 0.000000 0.000000 0.000000 -88.561546 0.188198 3.297948 -72.511398 8.353868 -9.488623 0.009215 -14.393542 82.789429 -0.420954 -10.079766 -1.875476 -16.960173 -31.060959 64.861954 5.342528 6.575130 -11.786524 3.838577 4.478028 -8.318700 0.000000 0.000000 0.000000 3.221103 -9.616721 15.416605 -1.781028 0.597335 -0.166925 -1.748033 0.121465 -0.263981 0.000000 0.000000 0.000000 2.529857 -4.080442 9.315022 -2.078437 0.537714 -0.144749 -2.380782 0.036773 -0.117837 0.000000 0.000000 0.000000 -1.921818 4.689234 1.522671 -4.565268 -1.048827 0.377456 -4.728172 -0.045013 0.299564 0.000000 0.000000 0.000000 -7.212432 14.277477 -6.734695 -7.135836 -2.031161 1.553166 -6.795055 0.028952 1.375684 0.000000 0.000000 0.000000 0.000000 0.000000 0.000000 0.000000 0.000000 0.000000 -0.977370 -8.983456 14.418397 -0.066892 -0.654118 4.990504 -2.622956 -7.386527 18.041420 -0.822196 0.795916 -18.778444 0.000000 0.000000 0.000000 0.000000 0.000000 0.000000 0.000000 0.000000 0.000000 -1.571304 -6.189682 9.308971 0.077195 0.342056 10.416210 3.964777 -1.397518 16.626417 0.243003 -0.412114 -20.985418 0.000000 0.000000 0.000000 0.000000 0.000000 0.000000 0.000000 0.000000 0.000000 
0.582399 88.806709 2.799366 -0.053046 -1.383976 -10.519314 0.833134 0.197855 6.685057 -1.174761 0.386017 2.640692 0.444664 -0.537647 4.527447 -1.445868 0.320046 5.084300 2.030309 -0.455298 6.167995 0.165218 -0.160206 -2.839753 0.011919 -0.789969 -21.054806 0.000000 0.000000 0.000000 91.469604 -0.141277 8.211908 70.051270 -12.748591 -2.948580 -0.581285 21.168522 68.132217 -10.688650 8.469825 -2.202088 17.108747 31.018839 64.702003 -5.451973 -7.054115 -12.471627 -3.983484 -4.565535 -8.482619 0.000000 0.000000 0.000000 -9.428437 -7.293875 12.469152 1.238252 0.535909 0.529680 0.853408 0.097504 0.600600 0.000000 0.000000 0.000000 -8.646392 -1.956411 7.273929 0.310983 0.519722 0.181340 0.947186 0.014253 0.173982 0.000000 0.000000 0.000000 -6.724571 5.753911 0.897232 0.847470 -1.019905 -0.361168 0.960519 -0.036676 -0.246786 0.000000 0.000000 0.000000 -6.447996 14.036212 -6.055957 1.368284 -1.996769 -1.020001 1.301417 -0.026105 -0.800237 0.000000 0.000000 0.000000 0.000000 0.000000 0.000000 0.000000 0.000000 0.000000 -88.613205 0.202330 3.221655 -72.405510 8.012445 -9.501059 0.063288 -14.385343 83.997284 -0.174584 -9.862365 -1.205137 -16.871202 -31.091116 64.958923 5.236817 6.395502 -11.504604 3.756858 4.361721 -8.119127 0.000000 0.000000 0.000000 3.871695 -9.731683 15.807046 -1.674757 0.602046 -0.145138 -1.643816 0.126590 -0.244365 0.000000 0.000000 0.000000 3.115660 -4.182031 9.585363 -1.976874 0.539491 -0.137019 -2.287799 0.038990 -0.111845 0.000000 0.000000 0.000000 -1.427611 4.608939 1.610779 -4.482481 -1.051281 0.366243 -4.639791 -0.047502 0.292196 0.000000 0.000000 0.000000 -6.867804 14.243178 -6.846466 -7.093459 -2.037039 1.524103 -6.747066 0.022237 1.350855 0.000000 0.000000 0.000000 0.000000 0.000000 0.000000 0.000000 0.000000 0.000000 -0.961414 -8.960077 14.410298 -0.068015 -0.655265 5.013068 -2.659880 -7.375513 18.020384 -0.818310 0.797279 -18.780117 0.000000 0.000000 0.000000 0.000000 0.000000 0.000000 0.000000 0.000000 0.000000 -1.550485 -6.178577 9.333939 0.076936 0.341572 10.427423 3.948524 -1.401998 16.582586 0.241364 -0.410668 -20.953756 0.000000 0.000000 0.000000 0.000000 0.000000 0.000000 0.000000 0.000000 0.000000 
